Coordinates
version=1
nRows=14
nColumns=36
inDegrees=yes

Units are S.I. units (second, meters, Newtons, ...)
If the header above contains a line with 'inDegrees', this indicates whether rotational values are in degrees (yes) or radians (no).

endheader
time	pelvis_tilt	pelvis_list	pelvis_rotation	pelvis_tx	pelvis_ty	pelvis_tz	hip_flexion_r	hip_adduction_r	hip_rotation_r	knee_angle_r	knee_angle_r_beta	ankle_angle_r	subtalar_angle_r	mtp_angle_r	hip_flexion_l	hip_adduction_l	hip_rotation_l	knee_angle_l	knee_angle_l_beta	ankle_angle_l	subtalar_angle_l	mtp_angle_l	lumbar_extension	lumbar_bending	lumbar_rotation	arm_flex_r	arm_add_r	arm_rot_r	elbow_flex_r	pro_sup_r	arm_flex_l	arm_add_l	arm_rot_l	elbow_flex_l	pro_sup_l
      0.00000000	     -1.89919522	     -3.38368719	     10.91553879	      0.11842314	      0.93284140	     -0.17793223	     24.10939989	      4.39142091	     -4.85726650	      5.99287898	      0.10459547	    -11.51235412	    -13.78847837	     -5.58744664	    -11.85650695	     -4.08437910	     -5.39743096	     17.42618894	      0.30414437	     15.63987017	      2.59562254	     -5.58744664	     -3.08193957	      0.15172108	    -12.47450793	     -1.69654735	     -3.64113244	    -11.88036790	     36.72820593	    100.17135752	     22.35631031	     -8.17132975	     -2.65410256	     60.24106877	    103.76392844
      0.01000000	     -1.69773787	     -3.70796241	     10.98395772	      0.13098000	      0.93390986	     -0.17677105	     23.61119630	      5.00192956	     -4.69037733	      6.79296384	      0.11855958	    -11.46654486	    -14.74100041	     -5.66458866	    -11.15621466	     -4.84788208	     -4.83761398	     20.25036384	      0.35343552	     13.86283775	      1.31205814	     -5.66458866	     -3.19375976	      0.59887811	    -12.26542225	     -1.58814513	     -3.52505857	    -12.19246190	     36.13549592	    100.28389596	     21.66906496	     -7.95520814	     -2.37155889	     60.06466607	    104.01265711
      0.02000000	     -1.18919588	     -4.01405868	     10.98589114	      0.14345781	      0.93538176	     -0.17556633	     22.76618139	      5.68353675	     -4.37887715	      7.61422421	      0.13289328	    -11.23964766	    -15.07719506	     -5.67369403	    -10.87106223	     -5.62912646	     -4.26329539	     22.91029661	      0.39986011	     12.43145162	      1.11042846	     -5.67369403	     -3.77927604	      1.12115881	    -11.86753183	     -1.45872454	     -3.49765326	    -12.25682338	     35.75828854	    100.26800402	     21.16399659	     -7.61981599	     -2.17605359	     59.98098225	    104.04806927
      0.03000000	     -1.28018734	     -4.36580760	     11.07530811	      0.15582108	      0.93606026	     -0.17423751	     22.60437767	      6.27414521	     -4.41173014	      8.40335530	      0.14666622	    -11.12460468	    -16.42025413	     -5.73736419	     -9.47818356	     -6.39640561	     -3.76346634	     26.22157519	      0.45765282	      9.72267629	     -1.02585064	     -5.73736419	     -3.50530580	      1.44584742	    -11.65839704	     -1.37136900	     -3.28022675	    -12.58749644	     34.94431967	    100.25867213	     20.43750652	     -7.51139620	     -1.67074418	     59.51073506	    104.25453520
      0.04000000	     -0.96065340	     -4.78600509	     11.05466724	      0.16807882	      0.93730110	     -0.17284615	     21.96925664	      7.06208460	     -4.30752556	      9.16265805	      0.15991855	    -10.64434941	    -17.08404451	     -5.77379689	     -8.49268773	     -7.33948055	     -3.46978400	     29.49839400	      0.51484410	      7.29657961	     -1.92054253	     -5.77379689	     -3.77649628	      1.99650787	    -11.25696962	     -1.17922296	     -3.22933736	    -12.71319901	     34.40984593	    100.23062445	     19.83174661	     -7.28235986	     -1.30026386	     59.08001692	    104.37316900
      0.05000000	     -0.76782882	     -5.07927163	     10.97278062	      0.18001950	      0.93846122	     -0.17138321	     21.46473242	      7.69452944	     -4.19982320	      9.96058257	      0.17384496	    -10.08203619	    -17.61831328	     -5.82222588	     -7.19052570	     -8.05140397	     -2.96607215	     32.97847309	      0.57558294	      4.43956464	     -3.28532639	     -5.82222588	     -3.97334646	      2.35584762	    -10.71049822	     -0.97778020	     -3.12738261	    -12.79461270	     33.84476079	    100.18066211	     19.28792369	     -7.03972455	     -0.82785975	     58.45288895	    104.55015688
      0.06000000	     -0.40893923	     -5.49762051	     10.85674873	      0.19186374	      0.93974696	     -0.16987116	     20.70062988	      8.51476488	     -4.14129995	     10.54537030	      0.18405143	     -9.27818750	    -18.02901457	     -5.84460856	     -5.85352131	     -9.02256092	     -2.75632742	     36.69046130	      0.64036935	      1.70217770	     -3.89524214	     -5.84460856	     -4.36399128	      2.91124888	    -10.10480478	     -0.72429375	     -3.10766058	    -12.81168898	     33.37398478	    100.13202937	     18.69976530	     -6.78518595	     -0.46753705	     57.85366316	    104.63106735
      0.07000000	      0.08170174	     -5.64707392	     10.61978090	      0.20318869	      0.94129277	     -0.16824630	     19.73646585	      9.10442223	     -3.87126532	     11.12532191	      0.19417350	     -8.71272880	    -18.19139520	     -5.85489044	     -4.63402129	     -9.60975950	     -2.35356055	     40.38707428	      0.70488742	     -0.50280790	     -4.21709684	     -5.85489044	     -5.14266928	      3.16536685	     -9.33170123	     -0.33664852	     -3.01179667	    -12.74127998	     33.05978054	    100.10580544	     18.25772352	     -6.56311509	     -0.25822058	     57.34910905	    104.65958477
      0.08000000	     -0.06762768	     -6.04089859	     10.47230721	      0.21458041	      0.94184107	     -0.16690446	     19.52638145	      9.72248521	     -4.16671331	     11.73886209	      0.20488179	     -7.31808430	    -17.97243948	     -5.93448056	     -2.44769552	    -10.27477161	     -1.78796115	     44.16593849	      0.77084104	     -4.77134280	     -6.89318302	     -5.93448056	     -4.79136126	      3.54800777	     -8.57934596	     -0.28052282	     -3.11183794	    -12.50572032	     32.56365744	     99.97675026	     17.77424341	     -6.35490204	      0.79497439	     55.78032248	    105.08635581
      0.09000000	      0.40792030	     -6.07312558	     10.13209853	      0.22540846	      0.94331609	     -0.16533816	     18.41895693	     10.17785332	     -3.91698198	     12.00198292	      0.20947412	     -6.81692063	    -17.99926624	     -5.94238637	     -1.11368369	    -10.66743389	     -1.52137114	     47.75327314	      0.83345184	     -6.24638962	     -6.86822130	     -5.94238637	     -5.63598513	      3.65984469	     -7.76273128	      0.24234497	     -3.06346147	    -12.38845664	     32.43886082	     99.96962495	     17.24730211	     -6.14955832	      0.88522908	     55.22506943	    105.08907968
      0.10000000	      0.19471673	     -6.67272933	      9.99609706	      0.23640111	      0.94356835	     -0.16406185	     18.09029653	     11.02242444	     -4.03009032	     12.10695611	      0.21130625	     -5.68662261	    -17.96560602	     -5.96571842	      1.36837647	    -11.60070227	     -1.02903207	     51.56741545	      0.90002119	     -8.26682675	     -7.51733884	     -5.96571842	     -5.21302746	      4.34386642	     -7.12066012	      0.39814378	     -3.27813329	    -12.00392530	     32.13597247	     99.97812321	     16.58736059	     -5.84920364	      1.44551241	     53.69579807	    105.15073203
      0.11000000	      0.22286096	     -6.85404380	      9.79025447	      0.24692794	      0.94433793	     -0.16281550	     17.45561509	     11.46354880	     -4.04481559	     12.27132286	      0.21417499	     -4.79361127	    -17.71590180	     -5.98854910	      3.39852786	    -11.95867983	     -0.51037625	     54.98322935	      0.95963839	     -9.09246022	     -8.24670174	     -5.98854910	     -5.33916351	      4.54949511	     -6.34274493	      0.69879089	     -3.43895912	    -11.47052911	     31.96301425	    100.03493724	     16.10416310	     -5.64619255	      1.94011648	     52.30814597	    105.21621025
      0.12000000	      0.24160200	     -7.00333263	      9.61731518	      0.25735501	      0.94517737	     -0.16172820	     16.76014016	     11.85057301	     -4.03416937	     12.31602530	      0.21495519	     -3.90823103	    -17.41203492	     -6.01026112	      5.42981634	    -12.21021621	      0.02487705	     58.16811102	      1.01522506	     -9.11885141	     -8.94050589	     -6.01026112	     -5.44275183	      4.75729334	     -5.60741876	      0.98884079	     -3.65029076	    -10.82951288	     31.81335901	    100.13674441	     15.57384880	     -5.46172949	      2.37792836	     50.80458645	    105.25511144
      0.13000000	      0.20142813	     -7.01875065	      9.44283138	      0.26756566	      0.94606531	     -0.16069501	     16.15843107	     12.04410059	     -4.22718084	     12.47961077	      0.21781030	     -2.77074767	    -16.49106534	     -6.07553518	      7.49358184	    -12.23537920	      0.55253849	     61.08664998	      1.06616317	     -8.42871474	     -9.36783351	     -6.07553518	     -5.47252407	      4.72253741	     -4.84800672	      1.33799629	     -3.93908428	     -9.41469679	     31.55724133	    100.46782933	     15.20889825	     -5.32532915	      3.22203496	     48.89243996	    105.51169587
